<svg width="644" height="95" viewBox="0 0 644 95" fill="none" xmlns="http://www.w3.org/2000/svg">
  <path d="M50.5331 93.3211V20.9867H76.7146V0H0V20.9867H26.3223V93.3211H50.5331ZM168.331 93.3211L149.188 59.0427C157.915 55.9647 167.909 47.2901 167.909 31.0604C167.909 13.7113 156.085 0 135.252 0H88.2383V93.3211H112.449V61.9809H124.836L140.601 93.3211H168.331ZM131.593 40.9941H112.449V20.9867H131.593C137.927 20.9867 143.276 24.6245 143.276 30.9205C143.276 37.4963 137.927 40.9941 131.593 40.9941ZM205.511 93.3211V0H181.3V93.3211H205.511ZM246.612 93.3211V61.9809H269.415C290.529 61.9809 302.071 47.8498 302.071 31.0604C302.071 14.1311 290.529 0 269.415 0H222.401V93.3211H246.612ZM266.177 40.9941H246.612V20.9867H266.177C272.652 20.9867 277.438 24.6245 277.438 31.0604C277.438 37.3564 272.652 40.9941 266.177 40.9941ZM392.943 93.3211L373.8 59.0427C382.527 55.9647 392.521 47.2901 392.521 31.0604C392.521 13.7113 380.697 0 359.865 0H312.851V93.3211H337.061V61.9809H349.448L365.214 93.3211H392.943ZM356.205 40.9941H337.061V20.9867H356.205C362.539 20.9867 367.888 24.6245 367.888 30.9205C367.888 37.4963 362.539 40.9941 356.205 40.9941ZM430.123 93.3211V0H405.912V93.3211H430.123ZM534.285 93.3211V0H509.933V51.3476L471.928 0H447.013V93.3211H471.224V39.3152L510.918 93.3211H534.285ZM596.393 93.3211V20.9867H622.575V0H545.86V20.9867H572.182V93.3211H596.393ZM630.768 95C637.947 95 644 88.9838 644 81.8483C644 74.7128 637.947 68.6966 630.768 68.6966C623.59 68.6966 617.537 74.7128 617.537 81.8483C617.537 88.9838 623.59 95 630.768 95Z" fill="url(#triprint-gradient)"/>
  <defs>
  <linearGradient id="triprint-gradient" x1="0" y1="0" x2="27.431" y2="185.953" gradientUnits="userSpaceOnUse">
  <stop stop-color="#FE6030"/>
  <stop offset="0.5" stop-color="#EB1791"/>
  <stop offset="1" stop-color="#D70BE6"/>
  </linearGradient>
  </defs>
</svg>
